# AST/ASF file generated using VICON BodyLanguage
# -----------------------------------------------
:version 1.10
:name VICON
:units
  mass 1.0
  length 0.45
  angle deg
:documentation
   .ast/.asf automatically generated from VICON data using
   VICON BodyBuilder and BodyLanguage model FoxedUp or BRILLIANT.MOD
:root
   order TX TY TZ RX RY RZ
   axis XYZ
   position 0 0 0  
   orientation 0 0 0 
:bonedata
  begin
     id 1 
     name lhipjoint
     direction 0.643824 -0.71708 0.266994 
     length 2.52133 
     axis 0 0 0  XYZ
  end
  begin
     id 2 
     name lfemur
     direction 0.34202 -0.939693 0  
     length 7.51824  
     axis 0 0 20  XYZ
    dof rx ry rz
    limits (-160.0 20.0)
           (-70.0 70.0)
           (-60.0 70.0)
  end
  begin
     id 3 
     name ltibia
     direction 0.34202 -0.939693 0   
     length 7.3685   
     axis 0 0 20   XYZ
    dof rx
    limits (-10.0 170.0)
  end
  begin
     id 4 
     name lfoot
     direction 0.105419 -0.289636 0.951314   
     length 2.20972   
     axis -90 7.62852e-016 20   XYZ
    dof rx rz
    limits (-45.0 90.0)
           (-70.0 20.0)
  end
  begin
     id 5 
     name ltoes
     direction 1.53549e-011 -4.21833e-011 1   
     length 1.10139   
     axis -90 7.62852e-016 20   XYZ
    dof rx
    limits (-90.0 20.0)
  end
  begin
     id 6 
     name rhipjoint
     direction -0.608823 -0.743445 0.276811   
     length 2.43192  
     axis 0 0 0  XYZ 
  end
  begin
     id 7 
     name rfemur
     direction -0.34202 -0.939693 0   
     length 7.69715   
     axis 0 0 -20   XYZ
    dof rx ry rz
    limits (-160.0 20.0)
           (-70.0 70.0)
           (-70.0 60.0)
  end
  begin
     id 8 
     name rtibia
     direction -0.34202 -0.939693 0   
     length 7.44924   
     axis 0 0 -20   XYZ
    dof rx
    limits (-10.0 170.0)
 end
 begin
     id 9 
     name rfoot
     direction -0.103614 -0.284677 0.953007   
     length 2.22623  
     axis -90 -7.62852e-016 -20   XYZ
    dof rx rz
    limits (-45.0 90.0)
           (-20.0 70.0)
  end
  begin
     id 10 
     name rtoes
     direction -1.53537e-011 -4.22026e-011 1   
     length 1.11   
     axis -90 -7.62852e-016 -20   XYZ
    dof rx
    limits (-90.0 20.0)
  end
  begin
     id 11 
     name lowerback
     direction -0.0101212 0.99662 -0.0815298   
     length 2.08277   
     axis 0 0 0   XYZ
    dof rx ry rz
    limits (-20.0 45.0)
           (-30.0 30.0)
           (-30.0 30.0)
  end
  begin
     id 12 
     name upperback
     direction 0.024314 0.999591 -0.0150645   
     length 2.08524   
     axis 0 0 0   XYZ
    dof rx ry rz
    limits (-20.0 45.0)
           (-30.0 30.0)
           (-30.0 30.0)
  end
  begin
     id 13 
     name thorax
     direction 0.0285959 0.999323 0.0231357   
     length 2.09645   
     axis 0 0 0   XYZ
    dof rx ry rz
    limits (-20.0 45.0)
           (-30.0 30.0)
           (-30.0 30.0)
  end
  begin
     id 14 
     name lowerneck
     direction -0.065512 0.979301 0.191515   
     length 1.63798   
     axis 0 0 0   XYZ
    dof rx ry rz
    limits (-20.0 45.0)
           (-30.0 30.0)
           (-30.0 30.0)
  end
  begin
     id 15 
     name upperneck
     direction 0.0498479 0.98191 -0.182667   
     length 1.68731   
     axis 0 0 0   XYZ
    dof rx ry rz
    limits (-20.0 45.0)
           (-30.0 30.0)
           (-30.0 30.0)
  end
  begin
     id 16
     name head
     direction 0.0230358 0.996257 -0.0833175  
     length 1.69785  
     axis 0 0 0   XYZ
    dof rx ry rz
    limits (-20.0 45.0)
           (-30.0 30.0)
           (-30.0 30.0)
  end
  begin
     id 17 
     name lclavicle
     direction 0.967963 0.201165 -0.150269  
     length 3.63976  
     axis 0 0 0   XYZ
    dof ry rz
    limits (-20.0 10.0)
           (0.0 20.0)
  end
  begin
     id 18 
     name lhumerus
     direction 1 -4.48954e-011 -2.92837e-028   
     length 5.32462   
     axis 180 -30 -90   XYZ
    dof rx ry rz
    limits (-60.0 90.0)
           (-90.0 90.0)
           (-90.0 90.0)
  end
  begin
     id 19
     name lradius
     direction 1 -4.48958e-011 -6.39511e-027   
     length 3.48402   
     axis 180 -30 -90   XYZ
    dof rx
    limits (-10.0 170.0)
  end
  begin
     id 20
     name lwrist
     direction 1 -4.48975e-011 -1.1413e-026   
     length 1.74201   
     axis 6.88575e-015 90 90   XYZ
    dof ry
    limits (-180.0 0.0)
 end
  begin
     id 21 
     name lhand
     direction 1 -4.48899e-011 -2.28192e-026   
     length 0.572476   
     axis 1.45643e-014 90 90   XYZ
    dof rx rz
    limits (-90.0 90.0)
           (-45.0 45.0)
  end
  begin
     id 22 
     name lfingers
     direction 1 -4.49155e-011 -4.5684e-026   
     length 0.461545   
     axis 2.91283e-014 90 90   XYZ
    dof rx
    limits (0.0 90.0)
  end
  begin
     id 23
     name lthumb
     direction 0.707107 -6.34943e-011 0.707107   
     length 0.662688   
     axis -90 45 -2.25915e-014   XYZ
    dof rx rz
    limits (-45.0 45.0)
           (-45.0 45.0)
  end
  begin
     id 24 
     name rclavicle
     direction -0.964103 0.264019 -0.0282629   
     length 3.54491  
     axis 0 0 0   XYZ 
    dof ry rz
    limits (-10.0 20.0)
           (-20.0 0.0)
  end
  begin
     id 25 
     name rhumerus
     direction -1 -4.48964e-011 -2.45032e-027  
     length 5.33589   
     axis 180 30 90   XYZ
    dof rx ry rz
    limits (-90.0 60.0)
           (-90.0 90.0)
           (-90.0 90.0)
  end
  begin
     id 26 
     name rradius
     direction -1 -4.48987e-011 -1.55093e-027   
     length 3.64134   
     axis 180 30 90   XYZ
    dof rx
    limits (-10.0 170.0)
  end
  begin
     id 27 
     name rwrist
     direction -1 -4.4897e-011 -1.14128e-026   
     length 1.82067   
     axis 6.88575e-015 -90 -90   XYZ
    dof ry
    limits (-180.0 0.0)
  end
  begin
     id 28
     name rhand
     direction -1 -4.49021e-011 -2.28301e-026   
     length 0.734811   
     axis 1.45643e-014 -90 -90   XYZ
    dof rx rz
    limits (-90.0 90.0)
           (-45.0 45.0)
  end
  begin
     id 29
     name rfingers
     direction -1 -4.48862e-011 -4.56319e-026   
     length 0.592424   
     axis 2.91283e-014 -90 -90   XYZ
    dof rx
    limits (0.0 90.0)
  end
  begin
     id 30
     name rthumb
     direction -0.707107 -6.34978e-011 0.707107   
     length 0.850605   
     axis -90 -45 2.25915e-014   XYZ
    dof rx rz
    limits (-45.0 45.0)
           (-45.0 45.0)
  end
:hierarchy
  begin
    root lhipjoint rhipjoint lowerback
    lhipjoint lfemur
    lfemur ltibia
    ltibia lfoot
    lfoot ltoes
    rhipjoint rfemur
    rfemur rtibia
    rtibia rfoot
    rfoot rtoes
    lowerback upperback
    upperback thorax
    thorax lowerneck lclavicle rclavicle
    lowerneck upperneck
    upperneck head
    lclavicle lhumerus
    lhumerus lradius
    lradius lwrist
    lwrist lhand lthumb
    lhand lfingers
    rclavicle rhumerus
    rhumerus rradius
    rradius rwrist
    rwrist rhand rthumb
    rhand rfingers
  end

#!OML:ASF F:\VICON\USERDATA\INSTALL\rory3\rory3.ASF
:FULLY-SPECIFIED
:DEGREES
143
root -2.70367 17.7521 0.239885 9.67646 -42.3725 6.81692
lowerback 13.0274 1.50226 0.394384
upperback 6.3762 1.96017 6.61947
thorax -0.809393 0.811092 6.48217
lowerneck -9.26891 -7.7484 -9.11061
upperneck 31.3141 -12.2607 7.90563
head 13.089 -5.6233 2.84965
rclavicle -4.77083e-014 -3.02153e-014
rhumerus 7.78189 -18.7898 -91.9648
rradius 32.3101
rwrist -26.9175
rhand -25.9636 -22.9635
rfingers 7.12502
rthumb 0.580891 -52.9425
lclavicle -4.77083e-014 -3.02153e-014
lhumerus -1.6466 -60.244 91.6688
lradius 63.9223
lwrist 75.7783
lhand -21.993 58.2629
lfingers 7.12502
lthumb 4.41552 88.1969
rfemur -36.0284 0.843999 1.56075
rtibia 45.2838
rfoot -13.5015 -5.18686
rtoes -8.58054
lfemur -26.2957 3.72529 -29.7661
ltibia 24.5881
lfoot -8.53319 -2.9274
ltoes -1.57616
144
root -2.69717 17.741 0.288211 9.8789 -42.5183 6.6501
lowerback 13.1857 1.42279 -0.560626
upperback 6.17709 1.77361 6.82244
thorax -1.11458 0.708039 7.28146
lowerneck -9.36443 -7.54568 -9.34698
upperneck 31.6288 -11.8484 7.58619
head 13.1899 -5.5077 2.82989
rclavicle -7.95139e-015 6.36111e-014
rhumerus 6.9077 -19.2992 -90.947
rradius 32.3494
rwrist -27.6556
rhand -26.538 -23.0424
rfingers 7.12502
rthumb 0.0260887 -53.0221
lclavicle -7.95139e-015 6.36111e-014
lhumerus -0.403131 -61.7817 91.7655
lradius 62.9235
lwrist 75.5215
lhand -21.833 58.5113
lfingers 7.12502
lthumb 4.57002 88.442
rfemur -36.709 1.06964 1.93234
rtibia 44.8159
rfoot -13.64 -4.90667
rtoes -9.03659
lfemur -26.4363 3.65771 -29.709
ltibia 24.9497
lfoot -8.84767 -2.90742
ltoes -0.907904
145
root -2.69181 17.7351 0.335294 10.1779 -42.6002 6.42963
lowerback 13.0377 1.24404 -0.91621
upperback 6.13549 1.49662 6.60941
thorax -1.04561 0.568197 7.29754
lowerneck -9.65008 -7.32575 -9.14495
upperneck 31.907 -11.5713 7.53608
head 13.3198 -5.36491 2.81318
rclavicle 6.99722e-014 1.90833e-014
rhumerus 6.24481 -20.2425 -90.6293
rradius 32.5699
rwrist -28.2492
rhand -27.6666 -23.2036
rfingers 7.12502
rthumb -1.06386 -53.1807
lclavicle 6.99722e-014 1.90833e-014
lhumerus 1.7858 -63.7661 90.1976
lradius 62.2288
lwrist 75.4782
lhand -21.6437 58.582
lfingers 7.12502
lthumb 4.75277 88.5087
rfemur -37.4249 1.33878 2.34076
rtibia 44.3029
rfoot -13.7233 -4.88804
rtoes -9.59206
lfemur -26.594 3.57122 -29.5916
ltibia 25.2433
lfoot -9.11722 -2.98886
ltoes 0.179288
146
root -2.68416 17.7307 0.381037 10.6434 -42.605 6.19016
lowerback 12.7821 1.0385 -1.11775
upperback 6.01341 1.20617 6.30785
thorax -0.996517 0.42899 7.12778
lowerneck -9.80756 -7.11268 -8.97484
upperneck 32.1274 -11.3761 7.70348
head 13.4263 -5.24116 2.87914
rclavicle 4.77083e-014 1.11319e-014
rhumerus 5.44754 -21.4082 -90.4278
rradius 32.9064
rwrist -28.6634
rhand -28.2953 -22.9981
rfingers 7.12502
rthumb -1.67108 -52.9713
lclavicle 4.77083e-014 1.11319e-014
lhumerus 4.10339 -65.8462 88.2456
lradius 61.6457
lwrist 75.3403
lhand -21.2655 58.7754
lfingers 7.12502
lthumb 5.11798 88.6936
rfemur -38.2659 1.50172 2.76749
rtibia 43.7299
rfoot -13.8826 -4.97945
rtoes -9.54864
lfemur -26.9488 3.58248 -29.5175
ltibia 25.5215
lfoot -9.32339 -3.19381
ltoes 0.666638
147
root -2.67893 17.7275 0.428611 11.0725 -42.558 5.93058
lowerback 12.5475 0.718523 -1.43235
upperback 5.87712 0.755458 6.18612
thorax -0.954895 0.204552 7.24059
lowerneck -9.81078 -6.78856 -9.24769
upperneck 32.312 -10.933 7.88819
head 13.4888 -5.06727 3.07321
rclavicle -3.18055e-014 2.22639e-014
rhumerus 4.62045 -22.2909 -90.0929
rradius 33.2005
rwrist -28.8418
rhand -27.3618 -22.8869
rfingers 7.12502
rthumb -0.769501 -52.8653
lclavicle -3.18055e-014 2.22639e-014
lhumerus 5.81389 -67.0694 87.1289
lradius 60.8962
lwrist 74.6384
lhand -20.0753 59.2183
lfingers 7.12502
lthumb 6.26709 89.1056
rfemur -39.0108 1.55976 3.24955
rtibia 43.0912
rfoot -13.957 -5.06273
rtoes -9.25452
lfemur -27.2578 3.51266 -29.408
ltibia 25.8176
lfoot -9.56384 -3.33261
ltoes 0.643796
148
root -2.67757 17.726 0.479089 11.4314 -42.4934 5.54999
lowerback 12.4812 0.203148 -1.90537
upperback 5.72502 0.0335543 6.35232
thorax -0.975243 -0.163008 7.79694
lowerneck -9.79082 -6.23583 -10.1193
upperneck 32.5983 -10.0156 8.01919
head 13.567 -4.771 3.42927
rclavicle -3.02153e-014 2.8625e-014
rhumerus 3.63786 -22.1436 -89.3968
rradius 33.5182
rwrist -29.2057
rhand -27.5708 -23.388
rfingers 7.12502
rthumb -0.971383 -53.3655
lclavicle -3.02153e-014 2.8625e-014
lhumerus 6.49873 -67.1248 87.233
lradius 60.15
lwrist 73.7685
lhand -18.9224 59.5442
lfingers 7.12502
lthumb 7.38009 89.3955
rfemur -39.5516 1.74709 3.82188
rtibia 42.4037
rfoot -14.0588 -5.18715
rtoes -8.8477
lfemur -27.3915 3.36065 -29.1677
ltibia 26.1333
lfoot -9.81575 -3.42329
ltoes 0.72716
149
root -2.67732 17.7235 0.527204 11.7984 -42.4312 5.17732
lowerback 12.486 -0.243689 -2.28239
upperback 5.55266 -0.587037 6.40776
thorax -1.05824 -0.47352 8.16413
lowerneck -9.83901 -5.75671 -10.6708
upperneck 32.8828 -9.24166 8.07108
head 13.6426 -4.50738 3.67498
rclavicle 8.74653e-014 9.54166e-015
rhumerus 2.62402 -22.2786 -88.7731
rradius 33.9829
rwrist -29.9415
rhand -28.6335 -23.7916
rfingers 7.12502
rthumb -1.99772 -53.762
lclavicle 8.74653e-014 9.54166e-015
lhumerus 7.09645 -67.4593 87.1772
lradius 59.6744
lwrist 73.4506
lhand -18.7296 59.8043
lfingers 7.12502
lthumb 7.56616 89.649
rfemur -40.0884 2.17492 4.30942
rtibia 41.6822
rfoot -14.2435 -5.53156
rtoes -8.10972
lfemur -27.5445 3.30606 -28.9492
ltibia 26.4533
lfoot -10.0249 -3.66788
ltoes 1.56173
150
root -2.67943 17.7203 0.573289 12.0914 -42.4241 4.96392
lowerback 12.2059 -0.566285 -2.2741
upperback 5.59309 -1.01928 6.00533
thorax -0.806609 -0.68993 7.76498
lowerneck -10.0653 -5.42825 -10.5586
upperneck 32.978 -8.87164 8.35194
head 13.6936 -4.30277 3.82604
rclavicle -8.42847e-014 6.04305e-014
rhumerus 2.01632 -23.214 -88.7839
rradius 34.4898
rwrist -31.101
rhand -29.3675 -23.7098
rfingers 7.12502
rthumb -2.70666 -53.6723
lclavicle -8.42847e-014 6.04305e-014
lhumerus 8.80521 -68.5679 85.5058
lradius 59.4217
lwrist 73.6544
lhand -18.8896 60.0336
lfingers 7.12502
lthumb 7.41171 89.8837
rfemur -40.6662 2.65261 4.65517
rtibia 40.9382
rfoot -14.2538 -6.00071
rtoes -7.4705
lfemur -27.6965 3.38438 -28.8891
ltibia 26.7385
lfoot -10.3148 -3.93871
ltoes 1.64092
151
root -2.68379 17.718 0.622119 12.3306 -42.4096 4.78947
lowerback 12.1329 -0.826995 -2.67892
upperback 5.51303 -1.40283 5.9642
thorax -0.781529 -0.886184 8.00366
lowerneck -10.2708 -5.11493 -10.6566
upperneck 33.1198 -8.33916 8.21982
head 13.7301 -4.1016 3.87328
rclavicle 8.74653e-015 -5.725e-014
rhumerus 1.28579 -23.6958 -88.0586
rradius 34.8036
rwrist -31.8784
rhand -29.8711 -23.4951
rfingers 7.12502
rthumb -3.19296 -53.4509
lclavicle 8.74653e-015 -5.725e-014
lhumerus 9.52165 -69.0464 85.3808
lradius 59.1305
lwrist 73.5176
lhand -18.7152 60.3893
lfingers 7.12502
lthumb 7.58006 269.767
rfemur -41.1912 3.03573 4.9874
rtibia 40.1876
rfoot -14.0735 -6.28204
rtoes -6.77375
lfemur -27.7732 3.51605 -28.8812
ltibia 26.9714
lfoot -10.6207 -4.1844
ltoes 1.13643
152
root -2.68991 17.7163 0.672762 12.5267 -42.3128 4.62132
lowerback 12.0871 -1.11268 -3.01093
upperback 5.43151 -1.8116 5.93002
thorax -0.765793 -1.09378 8.2103
lowerneck -10.3808 -4.79722 -10.745
upperneck 33.1768 -7.78611 8.0437
head 13.703 -3.89739 3.9032
rclavicle 4.37326e-014 -3.18055e-014
rhumerus 0.636486 -24.6902 -87.3306
rradius 34.9142
rwrist -31.3682
rhand -29.7135 -23.4669
rfingers 7.12502
rthumb -3.04082 -53.4249
lclavicle 4.37326e-014 -3.18055e-014
lhumerus 10.1168 -69.3986 85.2776
lradius 58.9984
lwrist 73.3428
lhand -17.3947 60.5302
lfingers 7.12502
lthumb 8.8545 269.676
rfemur -41.6312 3.39244 5.31429
rtibia 39.4301
rfoot -13.8798 -6.51478
rtoes -6.52419
lfemur -27.7805 3.49918 -28.8222
ltibia 27.1577
lfoot -10.8515 -4.41532
ltoes 1.51905
